<svg id="notification.5_1" data-name="notification.5 1" xmlns="http://www.w3.org/2000/svg" width="50" height="50" viewBox="0 0 50 50">
  <path id="notification.5_1-2" data-name="notification.5 1" d="M25,0A25,25,0,1,1,0,25,25,25,0,0,1,25,0Z" fill="#f3f6fb"/>
  <g id="Group_153" data-name="Group 153" transform="translate(12.719 13.288)">
    <path id="Path_77" data-name="Path 77" d="M2.556,5.446A1.085,1.085,0,0,0,3.641,6.531H4.22V19.353a3.575,3.575,0,0,0,3.57,3.571h8.98a3.575,3.575,0,0,0,3.57-3.571V6.531h.579a1.085,1.085,0,0,0,0-2.17h-3.8V3.242A2.745,2.745,0,0,0,14.381.5h-4.2A2.745,2.745,0,0,0,7.438,3.242V4.361h-3.8A1.085,1.085,0,0,0,2.556,5.446Zm7.052-2.2a.572.572,0,0,1,.572-.572h4.2a.572.572,0,0,1,.572.572V4.361H9.608V3.242ZM6.39,6.531H18.171V19.353a1.4,1.4,0,0,1-1.4,1.4H7.79a1.4,1.4,0,0,1-1.4-1.4V6.531Z" transform="translate(0)" fill="#626266"/>
    <path id="Path_78" data-name="Path 78" d="M11.858,21.826a1.085,1.085,0,0,0,1.085-1.085V12.686a1.085,1.085,0,1,0-2.17,0v8.056A1.085,1.085,0,0,0,11.858,21.826Zm5.393,0a1.085,1.085,0,0,0,1.085-1.085V12.686a1.085,1.085,0,1,0-2.17,0v8.056A1.085,1.085,0,0,0,17.25,21.826Z" transform="translate(-2.273 -3.071)" fill="#626266"/>
  </g>
</svg>
