<svg id="Frame" xmlns="http://www.w3.org/2000/svg" width="17.036" height="17.016" viewBox="0 0 17.036 17.016">
  <path id="Vector" d="M2.49,15.649H13.16a2.5,2.5,0,0,0,2.49-2.5V7.789a.711.711,0,0,0-1.423,0V13.15a1.073,1.073,0,0,1-1.067,1.076H2.49A1.073,1.073,0,0,1,1.423,13.15V2.5A1.073,1.073,0,0,1,2.49,1.423H7.825A.711.711,0,1,0,7.825,0H2.49A2.5,2.5,0,0,0,0,2.5V13.15a2.5,2.5,0,0,0,2.49,2.5Z" transform="translate(0 1.367)" fill="#696cff"/>
  <path id="Vector-2" data-name="Vector" d="M.578,7.444.016,10.015a.711.711,0,0,0,.193.655.738.738,0,0,0,.654.191L3.429,10.3a.711.711,0,0,0,.351-.193l6.483-6.483a2.134,2.134,0,0,0,0-3.018A2.184,2.184,0,0,0,7.246.6L.772,7.094A.711.711,0,0,0,.578,7.444ZM8.251,1.612a.727.727,0,0,1,1.006,0,.718.718,0,0,1,0,1.005l-.5.5L7.749,2.114ZM1.921,7.952,6.739,3.122l1,1L2.914,8.955l-1.277.28Z" transform="translate(6.148 0)" fill="#696cff"/>
</svg>
